<?xml version="1.0" encoding="utf-8"?>
<!-- Svg Vector Icons : http://www.onlinewebfonts.com/icon -->
<!DOCTYPE svg PUBLIC "-//W3C//DTD SVG 1.1//EN" "http://www.w3.org/Graphics/SVG/1.1/DTD/svg11.dtd">
<svg version="1.1" xmlns="http://www.w3.org/2000/svg" xmlns:xlink="http://www.w3.org/1999/xlink" x="0px" y="0px" viewBox="0 0 1000 1000" enable-background="new 0 0 1000 1000" xml:space="preserve">
<metadata> Svg Vector Icons : http://www.onlinewebfonts.com/icon </metadata>
<g><g transform="translate(0.000000,512.000000) scale(0.100000,-0.100000)"><path d="M4109.5,4997.6c-78.5-34.5-158.9-132.1-172.3-208.7c-7.7-34.5-9.6-226-5.7-429c5.7-335.1,9.6-371.5,45.9-419.4c74.7-101.5,134-130.2,277.7-137.9l134-7.7l-5.7-174.3l-5.7-172.3l-201.1-42.1c-645.3-134-1196.9-386.8-1702.4-781.3l-120.6-93.8l-95.8,93.8l-95.7,95.8l40.2,74.7c46,86.2,51.7,216.4,13.4,291.1c-15.3,28.7-120.6,143.6-235.5,254.7c-231.7,227.9-294.9,262.3-436.6,226c-69-17.2-137.9-78.5-465.3-406c-317.9-319.8-386.8-400.2-404.1-463.4c-36.4-139.8-1.9-204.9,226-436.6c111.1-114.9,226-220.2,254.7-235.5c74.7-38.3,204.9-32.5,291.1,13.4l74.7,40.2l91.9-91.9c51.7-51.7,93.8-99.6,93.8-109.1c0-7.7-67-116.8-151.3-243.2C846.4,564.5,676-710.9,1076.2-1934.6c509.4-1558.8,1892-2663.7,3538.9-2826.5c1204.5-118.7,2433.9,325.5,3305.2,1196.9c467.2,467.3,800.4,1009.2,1005.4,1637.3C9322.1-716.6,9147.8,576,8448.8,1629.2c-86.2,128.3-155.1,241.3-155.1,248.9c0,9.6,42.1,57.5,93.8,109.1l91.9,91.9l74.7-40.2c86.2-46,216.4-51.7,291.1-13.4c28.7,15.3,143.6,120.6,254.7,235.5c227.9,231.7,262.4,294.9,226,436.6c-17.3,68.9-78.5,137.9-406,465.3c-319.8,317.9-400.2,386.8-463.4,404.1c-139.8,36.4-204.9,1.9-436.6-226c-114.9-111.1-220.2-226-235.5-254.7c-38.3-74.7-32.5-204.9,13.4-291.1l40.2-74.7l-95.8-95.8l-95.8-93.8l-120.6,93.8c-501.7,390.7-1070.5,653-1692.8,781.3l-210.7,42.1l-5.7,174.3l-5.8,172.3l134,7.7c143.6,7.7,203,36.4,277.7,137.9c38.3,49.8,40.2,78.5,40.2,471.1c0,461.5-1.9,465.3-132.1,563c-51.7,38.3-76.6,40.2-907.7,44.1C4341.2,5022.5,4155.5,5018.7,4109.5,4997.6z M5766,4411.6v-306.4h-766h-766v306.4V4718h766h766V4411.6z M5306.4,3641.8v-158.9H5000h-306.4v158.9v157H5000h306.4V3641.8z M1779,3103.7l157-157L1614.3,2625l-319.8-319.8l-162.8,162.8L969,2630.7l316,316c174.3,174.3,319.8,316,325.5,316S1690.9,3191.8,1779,3103.7z M8715,2946.7l316-316l-162.8-162.8l-162.8-162.8L8385.7,2625L8064,2946.7l157,157c88.1,88.1,162.8,158.9,168.5,158.9S8540.8,3121,8715,2946.7z M5375.3,3165c702.8-68.9,1371.1-333.2,1945.6-766c203-153.2,568.7-519,721.9-721.9c587.9-777.5,861.7-1738.8,767.9-2686.7c-72.8-720-331.3-1376.8-771.7-1960.9c-149.4-197.2-515.1-563-712.4-712.4c-584.1-440.4-1240.9-699-1960.9-771.7c-947.9-93.8-1909.2,180-2686.7,767.9c-203,153.2-568.8,519-721.9,721.9C813.9-1452,930.7,633.4,2230.9,1994.9C3050.6,2852.9,4201.5,3281.8,5375.3,3165z M2028,2230.5c-55.5-59.4-101.5-111.1-105.3-114.9c-3.8-5.7-49.8,32.5-101.5,84.3l-95.8,93.8l109.2,111.1l109.1,111.1l91.9-90l90-90L2028,2230.5z M8180.8,2201.8l-93.8-93.8l-105.3,113l-107.2,113l90,91.9l88.1,90l111.1-109.2l111.1-111.1L8180.8,2201.8z"/><path d="M4617,2782c-838.7-95.7-1650.7-520.9-2204.1-1152.8c-1143.2-1309.8-1143.2-3236.3,0-4546.1c474.9-541.9,1154.7-942.2,1859.4-1093.4c1150.9-247,2326.7,99.6,3161.6,932.6c923,924.9,1242.8,2263.5,838.8,3515.9c-72.8,224.1-270,624.3-413.7,836.9c-643.4,959.4-1744.5,1539.6-2891.6,1526.2C4854.4,2799.2,4695.5,2791.6,4617,2782z M4846.8,2297.5c0-109.2,5.7-214.5,11.5-231.7c19.2-47.9,118.7-90,181.9-76.6c93.8,21.1,113,70.9,113,302.6v206.8l111.1-11.5c212.5-24.9,446.2-68.9,610.9-116.8c158.9-46,517.1-187.7,545.8-214.5c5.7-7.7-30.6-86.2-82.3-176.2c-103.4-180-118.7-262.4-55.5-325.5c49.8-49.8,158.9-51.7,206.8-3.8c21.1,21.1,72.8,101.5,116.8,181.9c44,82.3,90,147.5,103.4,147.5c42.1,0,371.5-268.1,532.4-434.7c162.8-166.6,381.1-442.3,381.1-478.7c0-9.6-67-55.5-147.5-103.4c-82.3-46-164.7-99.6-181.9-116.8c-47.9-47.9-44-158.9,3.8-206.8c63.2-63.2,145.5-47.9,325.5,55.5c90,51.7,168.5,88.1,176.2,82.3c26.8-28.7,168.5-386.8,214.5-545.8c49.8-168.5,93.8-407.9,114.9-610.9l11.5-111.1h-210.6c-199.2,0-214.5-1.9-258.5-47.9c-63.2-61.3-63.2-149.4,0-210.6c44-46,59.4-47.9,258.5-47.9h210.6l-11.5-109.2c-21.1-204.9-65.1-444.3-114.9-612.8c-46-158.9-187.7-517-214.5-545.8c-7.7-5.7-86.2,30.6-176.2,82.3c-180,103.4-262.4,118.7-325.5,55.5c-49.8-49.8-51.7-158.9-3.8-206.8c21.1-21.1,101.5-72.8,181.9-116.8c82.3-44.1,147.5-90,147.5-103.4c0-42.1-268.1-371.5-434.7-532.4c-170.4-166.6-442.4-381.1-480.7-381.1c-11.5,0-57.5,65.1-101.5,147.5c-101.5,183.8-134,216.4-218.3,216.4c-84.3,0-143.6-55.5-143.6-137.9c0-51.7,74.7-210.6,166.6-354.3c24.9-38.3,21.1-42.1-84.3-91.9c-331.3-155.1-643.4-237.5-1072.4-287.2l-101.5-11.5v212.5c0,199.2-1.9,214.5-47.9,258.5c-61.3,63.2-149.4,63.2-210.6,0c-46-44-47.9-59.4-47.9-256.6v-212.6l-118.7,11.5c-331.3,30.6-733.4,137.9-1036,275.8c-126.4,57.5-130.2,61.3-103.4,101.5c91.9,143.6,166.6,302.6,166.6,354.3c0,82.3-59.4,137.9-143.6,137.9c-84.3,0-116.8-32.5-218.3-216.4c-44-82.3-90-147.5-101.5-147.5c-38.3,0-310.2,214.5-480.6,381.1c-166.6,160.8-434.7,490.2-434.7,532.4c0,13.4,65.1,59.4,147.5,103.4c80.4,44,160.8,95.7,181.9,116.8c47.9,47.9,46,157-3.8,206.8c-63.2,63.2-145.6,47.9-325.5-55.5c-90-51.7-168.5-88.1-176.2-82.3c-26.8,28.7-168.5,386.8-214.5,545.8c-47.9,164.7-91.9,398.3-116.8,612.8l-11.5,109.2h208.7c254.7,0,300.7,23,300.7,153.2s-46,153.2-300.7,153.2h-208.7l11.5,111.1c24.9,212.6,68.9,446.2,116.8,610.9c46,158.9,187.7,517,214.5,545.8c7.7,5.7,86.2-30.6,176.2-82.3c180-103.4,262.4-118.7,325.5-55.5c49.8,49.8,51.7,158.9,3.8,206.8c-21.1,21.1-101.5,72.8-181.9,116.8c-82.4,44-147.5,90-147.5,101.5c0,38.3,214.5,310.2,381.1,480.6c160.9,166.6,490.2,434.7,532.4,434.7c13.4,0,59.4-65.1,103.4-147.5c101.5-183.8,134-216.4,218.3-216.4c84.2,0,143.6,55.5,143.6,137.9c0,51.7-74.7,210.6-166.6,354.3c-26.8,40.2-23,44,103.4,101.5c275.7,128.3,622.4,226,944.1,266.2C4869.8,2506.2,4846.8,2525.4,4846.8,2297.5z"/><path d="M5760.2,1190.7c-132.1-187.7-273.9-411.7-545.8-869.4L4963.6-102l-118.7-32.5c-216.4-59.4-381.1-279.6-381.1-509.4c0-226,162.8-448.1,373.4-509.4c264.3-76.6,517,34.5,645.4,279.6c65.1,126.4,61.3,337-5.8,467.2l-49.8,95.8l44,143.6c224.1,712.4,409.8,1367.3,409.8,1445.8C5880.9,1336.2,5844.5,1309.4,5760.2,1190.7z M5160.8-488.8c49.8-51.7,59.4-74.7,59.4-155.1c0-82.3-9.6-103.4-63.2-157c-53.6-53.6-74.7-63.2-157-63.2c-82.3,0-103.4,9.6-157,63.2c-53.6,53.6-63.2,74.7-63.2,155.1c0,99.6,47.9,176.2,134,214.5C4984.7-400.7,5097.7-425.6,5160.8-488.8z"/></g></g>
</svg>